<?xml version="1.0" standalone="no"?><!DOCTYPE svg PUBLIC "-//W3C//DTD SVG 1.1//EN" "http://www.w3.org/Graphics/SVG/1.1/DTD/svg11.dtd"><svg t="1594538413813" class="icon" viewBox="0 0 1024 1024" version="1.1" xmlns="http://www.w3.org/2000/svg" p-id="2798" xmlns:xlink="http://www.w3.org/1999/xlink" width="200" height="200"><defs><style type="text/css"></style></defs><path d="M509.87008 193.80224a20.41856 20.41856 0 0 0-14.47936-6.00064l-265.35936-0.02048a20.48 20.48 0 0 0-20.48 20.39808l-0.94208 266.3424a20.43904 20.43904 0 0 0 6.00064 14.56128l348.0576 348.0576a20.41856 20.41856 0 0 0 28.95872 0l266.32192-266.32192a20.45952 20.45952 0 0 0 0-28.95872L509.87008 193.80224z m67.2768 599.90016L249.61024 466.14528l0.83968-237.40416 236.48256 0.02048 327.5776 327.5776-237.3632 237.3632z" fill="" p-id="2799"></path><path d="M417.01376 396.20608m-53.4528 0a53.4528 53.4528 0 1 0 106.9056 0 53.4528 53.4528 0 1 0-106.9056 0Z" fill="" p-id="2800"></path></svg>